<mxfile host="65bd71144e">
    <diagram id="DJbqH1oENK2WMtfkHrCr" name="Page-1">
        <mxGraphModel dx="362" dy="313" grid="1" gridSize="10" guides="1" tooltips="1" connect="1" arrows="1" fold="1" page="1" pageScale="1" pageWidth="850" pageHeight="1100" math="0" shadow="0">
            <root>
                <mxCell id="0"/>
                <mxCell id="1" parent="0"/>
                <mxCell id="11" style="edgeStyle=none;html=1;exitX=0.5;exitY=1;exitDx=0;exitDy=0;entryX=0.5;entryY=0;entryDx=0;entryDy=0;" edge="1" parent="1" source="2" target="10">
                    <mxGeometry relative="1" as="geometry"/>
                </mxCell>
                <mxCell id="2" value="Process&lt;div&gt;Node&lt;/div&gt;" style="ellipse;whiteSpace=wrap;html=1;aspect=fixed;fontFamily=Verdana;fontStyle=1" vertex="1" parent="1">
                    <mxGeometry x="125" y="270" width="90" height="90" as="geometry"/>
                </mxCell>
                <mxCell id="9" style="edgeStyle=none;html=1;exitX=0.5;exitY=1;exitDx=0;exitDy=0;entryX=0.5;entryY=0;entryDx=0;entryDy=0;" edge="1" parent="1" source="5" target="2">
                    <mxGeometry relative="1" as="geometry"/>
                </mxCell>
                <mxCell id="5" value="" style="whiteSpace=wrap;html=1;rounded=1;fontStyle=1" vertex="1" parent="1">
                    <mxGeometry x="110" y="180" width="120" height="50" as="geometry"/>
                </mxCell>
                <mxCell id="3" value="Start" style="text;strokeColor=none;align=center;fillColor=none;html=1;verticalAlign=middle;whiteSpace=wrap;rounded=0;" vertex="1" parent="1">
                    <mxGeometry x="140" y="190" width="60" height="30" as="geometry"/>
                </mxCell>
                <mxCell id="10" value="End&lt;div&gt;&lt;br&gt;&lt;/div&gt;" style="whiteSpace=wrap;html=1;rounded=1;fontStyle=1" vertex="1" parent="1">
                    <mxGeometry x="110" y="400" width="120" height="40" as="geometry"/>
                </mxCell>
            </root>
        </mxGraphModel>
    </diagram>
</mxfile>